<?xml version="1.0" standalone="no"?>
<!DOCTYPE svg PUBLIC "-//W3C//DTD SVG 20010904//EN"
 "http://www.w3.org/TR/2001/REC-SVG-20010904/DTD/svg10.dtd">
<svg version="1.0" xmlns="http://www.w3.org/2000/svg"
 width="1080.000000pt" height="1080.000000pt" viewBox="0 0 1080.000000 1080.000000"
 preserveAspectRatio="xMidYMid meet">
<metadata>
Created by potrace 1.11, written by Peter Selinger 2001-2013
</metadata>
<g transform="translate(0.000000,1080.000000) scale(0.100000,-0.100000)"
fill="#000000" stroke="none">
<path d="M5237 9654 c-1 -1 -72 -4 -157 -8 -85 -3 -166 -8 -180 -10 -14 -2
-60 -7 -103 -10 -43 -4 -97 -10 -120 -15 -23 -5 -64 -12 -92 -16 -77 -9 -342
-65 -388 -81 -22 -8 -53 -17 -69 -19 -108 -19 -407 -137 -586 -231 -540 -283
-903 -708 -1083 -1269 -47 -146 -95 -372 -105 -501 -3 -38 -8 -80 -10 -94 -3
-14 -7 -169 -10 -345 l-5 -320 -27 -20 c-146 -107 -239 -286 -260 -501 -11
-117 -6 -512 14 -937 l6 -149 -100 -101 c-126 -127 -215 -235 -296 -357 -163
-246 -234 -441 -242 -665 -4 -141 11 -229 61 -352 29 -71 103 -198 138 -236 7
-7 48 -53 91 -102 44 -50 85 -94 91 -100 7 -5 51 -59 100 -120 203 -254 320
-469 380 -699 46 -180 93 -304 166 -445 95 -181 210 -337 338 -455 75 -70 94
-85 176 -140 167 -113 332 -179 535 -216 36 -7 76 -14 90 -17 44 -8 514 -11
565 -3 28 4 73 11 100 14 148 20 319 85 420 160 22 16 80 69 129 118 88 85
114 101 186 112 172 26 649 26 795 0 71 -12 103 -31 184 -108 136 -129 203
-175 330 -223 60 -22 170 -52 216 -58 11 -2 43 -6 70 -10 28 -4 70 -9 95 -11
54 -5 393 -5 435 0 17 2 61 7 100 11 38 3 73 9 76 11 4 2 23 6 43 10 62 9 190
50 278 89 159 69 282 153 417 285 160 158 268 320 379 570 33 75 70 191 103
321 57 233 153 414 348 659 68 86 101 124 181 209 196 208 242 274 298 436 53
154 49 353 -10 545 -60 198 -204 438 -383 640 -21 25 -79 85 -128 135 -73 73
-89 95 -89 120 0 16 2 253 5 525 6 488 3 549 -28 671 -38 153 -145 301 -269
374 -16 9 -18 41 -21 325 -2 173 -6 329 -9 345 -2 17 -7 59 -10 95 -3 36 -8
76 -11 90 -6 32 -13 75 -20 124 -3 21 -7 41 -10 45 -2 4 -6 18 -9 32 -19 105
-61 242 -124 407 -29 76 -126 254 -188 349 -381 572 -1040 937 -1929 1068 -22
4 -51 8 -65 10 -14 3 -54 7 -90 11 -36 3 -76 7 -90 10 -50 8 -615 24 -623 18z
m578 -257 c17 -3 66 -8 109 -12 44 -3 82 -8 85 -9 3 -2 31 -7 61 -10 56 -7 95
-12 140 -21 14 -3 36 -7 50 -10 62 -12 220 -48 265 -62 172 -51 316 -103 428
-154 687 -310 1092 -854 1193 -1607 3 -20 7 -53 10 -72 2 -19 7 -97 10 -173
l7 -137 -2798 2 -2798 3 2 75 c8 329 70 630 183 895 184 432 511 764 971 985
242 117 594 224 872 265 22 4 51 8 65 10 14 3 50 7 80 11 30 3 62 8 70 9 8 2
65 6 125 10 61 4 112 9 114 11 7 6 720 -3 756 -9z m2439 -2860 c105 -28 191
-133 227 -277 15 -60 18 -444 6 -971 l-5 -276 65 -58 c323 -287 545 -630 582
-897 30 -218 -35 -380 -230 -578 -326 -333 -569 -726 -619 -1002 -17 -94 -86
-291 -139 -397 -74 -146 -160 -269 -264 -372 -182 -182 -357 -277 -610 -330
-85 -18 -140 -22 -335 -24 -128 -1 -252 1 -275 5 -23 4 -62 10 -87 13 -63 8
-184 44 -234 69 -67 34 -116 71 -210 162 -50 47 -111 96 -136 110 -57 31 -146
52 -265 62 -179 15 -714 8 -785 -11 -8 -2 -30 -7 -49 -10 -70 -12 -140 -56
-229 -142 -151 -149 -215 -187 -366 -223 -119 -28 -189 -34 -411 -34 -212 -1
-265 3 -385 28 -309 64 -578 257 -764 548 -99 155 -164 312 -216 523 -33 132
-91 280 -142 368 -15 26 -28 50 -28 53 0 13 -174 268 -238 349 -82 102 -85
106 -207 239 -157 171 -214 272 -237 423 -27 170 34 390 165 598 95 151 299
384 435 497 l44 36 -7 119 c-12 235 -15 301 -20 468 -4 138 -7 483 -4 570 0
11 5 41 10 66 6 26 12 53 13 60 22 108 114 219 199 239 42 10 5713 7 5751 -3z"/>
<path d="M6056 6329 c-51 -8 -76 -34 -76 -80 0 -51 -2 -49 355 -234 83 -43
182 -94 220 -115 39 -20 165 -86 280 -145 116 -59 237 -122 270 -140 224 -121
329 -168 381 -171 67 -3 120 22 178 87 52 58 123 199 165 329 63 194 72 280
37 352 -28 58 -55 66 -276 73 -107 4 -217 8 -245 10 -132 8 -902 34 -1171 39
-45 0 -98 -2 -118 -5z"/>
<path d="M4277 6324 c-1 -1 -96 -5 -212 -9 -115 -3 -248 -8 -295 -10 -47 -2
-155 -6 -240 -10 -157 -5 -340 -13 -462 -20 -36 -2 -79 -9 -95 -17 -39 -18
-67 -80 -65 -143 4 -152 129 -482 222 -588 56 -63 116 -91 185 -85 57 5 87 19
385 174 207 108 423 220 585 304 147 77 291 152 413 216 41 22 85 49 98 61 31
29 33 82 3 109 -20 18 -40 19 -271 19 -137 0 -250 0 -251 -1z"/>
<path d="M4453 5381 c-10 -15 -5 -44 23 -152 34 -130 125 -484 205 -799 41
-159 43 -191 24 -355 -2 -16 -7 -68 -11 -115 -3 -47 -8 -96 -9 -110 -1 -14 -5
-61 -9 -105 -4 -44 -9 -100 -11 -125 -2 -25 -7 -79 -11 -120 -3 -41 -7 -91 -9
-110 -2 -19 -6 -66 -9 -105 -3 -38 -9 -99 -12 -135 -2 -36 -8 -87 -11 -115 -3
-27 -7 -142 -8 -254 -1 -162 1 -206 12 -217 12 -12 138 -14 782 -14 719 0 769
1 783 18 14 14 15 51 13 254 -2 130 -5 240 -8 245 -3 4 -8 53 -12 108 -7 101
-8 113 -18 220 -7 68 -12 126 -32 365 -3 36 -7 81 -10 100 -2 19 -7 71 -10
115 -3 44 -8 100 -10 125 -16 174 -16 173 19 311 19 74 66 258 105 409 38 151
85 334 104 407 31 118 33 134 20 152 -14 21 -17 21 -946 21 -904 0 -933 -1
-944 -19z m1538 -1131 c1 -8 2 -26 4 -40 1 -14 5 -63 9 -110 4 -47 9 -100 11
-119 3 -18 7 -65 10 -105 8 -96 13 -161 20 -243 3 -37 7 -86 10 -108 2 -22 7
-74 10 -115 4 -41 8 -96 11 -122 2 -27 6 -69 8 -95 3 -27 8 -81 11 -122 3 -41
8 -78 11 -82 2 -4 -1 -11 -8 -16 -14 -8 -1408 -12 -1403 -3 2 3 6 48 10 100 3
52 8 111 10 130 2 19 6 71 10 115 3 44 8 91 10 105 2 14 7 63 10 110 4 47 8
101 10 120 2 19 6 71 10 115 3 44 8 96 10 115 3 19 7 69 10 110 7 95 17 200
20 220 2 8 4 24 4 35 1 20 6 20 591 20 520 0 590 -1 591 -15z"/>
<path d="M5011 4092 c-5 -10 -12 -54 -16 -98 -3 -43 -8 -92 -10 -109 -2 -16
-7 -70 -10 -120 -4 -49 -8 -108 -10 -130 -11 -112 -15 -156 -20 -220 -10 -132
-16 -200 -21 -236 -10 -66 -23 -64 484 -64 380 0 458 2 469 14 14 13 13 76 -2
211 -2 19 -7 71 -10 115 -8 116 -24 291 -30 345 -2 19 -7 78 -10 130 -7 110
-13 150 -27 168 -8 9 -99 12 -394 12 -359 0 -384 -1 -393 -18z m716 -76 c6 -5
10 -43 18 -156 4 -52 8 -108 10 -125 5 -55 16 -179 20 -235 3 -30 7 -84 10
-120 3 -36 8 -90 11 -120 l5 -55 -390 -1 c-263 0 -391 4 -392 11 -1 5 -1 13
-1 16 0 3 4 52 7 110 4 57 9 112 11 123 2 10 6 64 10 120 3 55 8 109 9 118 2
10 7 59 11 110 4 51 8 104 9 118 2 14 3 39 4 57 1 27 5 32 29 35 38 4 614 -1
619 -6z"/>
<path d="M5162 3898 c-18 -18 -15 -56 6 -67 28 -15 329 -11 342 4 20 24 20 54
0 65 -28 15 -333 13 -348 -2z"/>
<path d="M5177 3772 c-15 -2 -31 -11 -36 -21 -13 -24 -3 -61 18 -62 71 -6 469
-4 482 2 25 12 29 46 9 64 -15 13 -51 16 -231 18 -118 1 -226 1 -242 -1z"/>
<path d="M5138 3619 c-22 -12 -23 -42 -2 -63 13 -13 43 -16 174 -16 131 0 161
3 174 16 9 8 16 22 16 29 0 7 -7 21 -16 29 -13 13 -43 16 -172 16 -88 0 -165
-5 -174 -11z"/>
<path d="M2459 4455 c-102 -52 -436 -259 -456 -284 -31 -35 -30 -82 3 -120 46
-55 75 -47 280 77 99 60 190 115 203 123 103 59 135 111 105 171 -16 30 -23
36 -63 48 -21 6 -39 2 -72 -15z"/>
<path d="M8255 4470 c-53 -21 -75 -93 -43 -141 18 -29 458 -297 499 -306 86
-17 145 86 87 151 -35 38 -460 295 -500 301 -13 2 -32 0 -43 -5z"/>
<path d="M2403 4082 c-126 -75 -237 -145 -246 -154 -42 -42 -39 -109 7 -148
41 -33 84 -19 262 90 93 56 195 119 227 138 72 44 97 75 97 119 0 45 -46 93
-88 93 -20 0 -102 -44 -259 -138z"/>
<path d="M8094 4208 c-46 -22 -58 -102 -21 -141 29 -32 465 -295 497 -300 27
-5 69 13 89 37 23 27 21 80 -2 110 -12 15 -125 90 -252 166 -234 142 -260 153
-311 128z"/>
<path d="M2738 3941 c-29 -16 -114 -66 -188 -111 -74 -46 -161 -99 -192 -117
-91 -53 -113 -120 -59 -174 53 -52 73 -45 323 107 123 75 234 147 248 160 37
36 34 99 -8 134 -41 34 -61 34 -124 1z"/>
<path d="M7953 3954 c-54 -27 -65 -108 -21 -149 13 -11 122 -81 243 -154 251
-152 277 -161 325 -113 43 43 42 94 -2 135 -44 39 -456 287 -488 293 -14 2
-39 -3 -57 -12z"/>
<path d="M2837 3662 c-42 -26 -146 -88 -230 -139 -84 -51 -162 -102 -172 -113
-29 -33 -26 -94 7 -126 47 -48 75 -40 261 71 92 55 195 117 229 137 81 47 108
79 108 124 0 26 -8 44 -29 65 -43 42 -79 38 -174 -19z"/>
<path d="M7791 3691 c-16 -12 -25 -31 -28 -64 -5 -42 -3 -49 25 -75 49 -46
470 -293 500 -294 81 -2 128 96 74 155 -13 15 -174 117 -311 197 -14 9 -58 34
-97 58 -78 47 -124 53 -163 23z"/>
<path d="M3637 2504 c-1 -1 -24 -5 -50 -8 -94 -13 -216 -75 -265 -135 -41 -51
-65 -119 -70 -194 -16 -266 127 -494 353 -562 77 -23 228 -19 337 9 189 48
411 157 519 255 99 89 146 213 105 276 -28 43 -84 63 -256 90 -46 7 -110 41
-228 119 -112 75 -182 109 -267 130 -51 13 -171 26 -178 20z m424 -309 c147
-49 190 -244 77 -352 -53 -51 -121 -68 -208 -51 -33 7 -89 50 -116 90 -25 37
-29 53 -29 113 0 56 5 77 23 108 22 34 112 108 112 90 0 -4 4 -3 10 3 15 15
82 15 131 -1z"/>
<path d="M7033 2494 c-121 -20 -196 -55 -363 -169 -78 -53 -138 -81 -190 -90
-25 -4 -56 -9 -70 -12 -80 -13 -140 -37 -170 -68 -29 -30 -32 -38 -27 -75 11
-81 62 -162 155 -243 46 -39 191 -121 264 -147 35 -13 68 -26 73 -30 6 -4 42
-16 80 -28 253 -74 442 -51 578 68 156 137 230 441 147 600 -34 66 -83 111
-163 149 -110 53 -195 65 -314 45z m-143 -306 c170 -73 161 -332 -14 -391
-152 -52 -302 68 -282 225 18 139 166 221 296 166z"/>
</g>
</svg>
