<?xml version="1.0" standalone="no"?>
<!DOCTYPE svg PUBLIC "-//W3C//DTD SVG 20010904//EN"
 "http://www.w3.org/TR/2001/REC-SVG-20010904/DTD/svg10.dtd">
<svg version="1.0" xmlns="http://www.w3.org/2000/svg"
 width="1080.000000pt" height="1080.000000pt" viewBox="0 0 1080.000000 1080.000000"
 preserveAspectRatio="xMidYMid meet">
<metadata>
Created by potrace 1.11, written by Peter Selinger 2001-2013
</metadata>
<g transform="translate(0.000000,1080.000000) scale(0.100000,-0.100000)"
fill="#000000" stroke="none">
<path d="M5310 8714 c-564 -49 -998 -201 -1345 -472 -271 -212 -587 -658 -670
-946 -60 -211 -70 -531 -26 -826 27 -173 27 -167 -9 -175 -39 -9 -125 -74
-169 -128 -44 -55 -97 -168 -118 -254 -20 -81 -22 -269 -4 -358 23 -112 55
-200 97 -262 l41 -62 -29 -28 c-118 -112 -261 -395 -344 -681 -61 -211 -73
-461 -30 -631 53 -209 146 -377 313 -567 110 -125 119 -145 88 -203 -35 -69
-29 -149 23 -281 129 -328 436 -575 796 -639 33 -6 116 -11 184 -11 186 0 363
30 574 96 l80 26 53 -35 c195 -130 456 -206 655 -192 171 12 374 63 559 140
l64 26 96 -28 c93 -27 103 -28 316 -28 472 1 865 99 1003 249 109 120 170 341
160 588 l-3 93 60 40 c145 98 330 400 386 629 41 170 36 307 -18 481 -41 132
-171 386 -285 557 l-105 157 42 30 c83 59 148 187 182 357 26 134 24 441 -5
545 -29 106 -75 193 -133 251 -47 47 -135 98 -171 98 -16 0 -17 12 -11 133 10
229 -20 604 -68 856 -87 462 -227 754 -447 937 -296 247 -724 425 -1188 494
-134 20 -481 34 -594 24z m400 -205 c157 -14 335 -44 444 -74 406 -111 821
-399 1031 -715 67 -101 129 -298 154 -490 38 -294 17 -349 -119 -302 l-59 20
6 -277 6 -277 -139 -32 c-560 -129 -1019 -182 -1579 -182 -598 0 -1162 66
-1660 193 l-90 23 -17 80 c-31 141 -50 341 -42 441 3 51 3 113 0 138 -6 40
-14 51 -71 97 -70 58 -75 71 -51 148 53 170 202 422 350 592 285 327 746 549
1276 613 132 16 409 18 560 4z m-2366 -2363 c74 -31 138 -125 171 -251 50
-192 -34 -552 -149 -640 -77 -58 -128 -37 -184 79 -39 80 -40 89 -8 75 34 -16
89 -3 119 27 44 44 73 229 57 364 -9 74 -14 88 -38 107 -40 33 -90 55 -139 61
-24 2 -46 8 -49 13 -14 23 79 131 141 163 37 19 38 19 79 2z m4355 -102 c56
-50 81 -107 81 -182 l0 -61 -33 6 c-52 8 -102 -18 -129 -69 -18 -35 -22 -59
-23 -133 0 -82 3 -96 33 -158 38 -77 67 -97 137 -97 26 0 45 -5 45 -11 0 -23
-66 -133 -105 -177 -68 -75 -121 -57 -187 64 -57 104 -72 188 -65 358 4 87 14
175 27 231 57 250 122 317 219 229z m-3964 -14 c39 -11 133 -34 210 -51 639
-140 1195 -173 1965 -115 419 32 941 78 1238 109 187 20 211 21 207 7 -2 -8
-14 -71 -26 -140 -17 -93 -23 -167 -23 -290 l-1 -165 32 -67 c36 -77 101 -180
174 -276 118 -156 303 -585 378 -875 36 -141 45 -228 31 -292 -14 -66 -79
-196 -134 -268 -50 -67 -204 -237 -214 -237 -4 0 -20 24 -36 53 -99 179 -215
288 -527 498 -159 106 -237 164 -233 172 75 126 241 337 302 384 101 77 273
73 374 -7 20 -17 41 -30 47 -30 15 0 41 54 41 84 0 65 -261 189 -359 171 -90
-16 -168 -89 -346 -318 -66 -86 -122 -156 -125 -156 -7 -1 -339 336 -564 572
-305 321 -452 414 -681 433 -140 12 -220 -45 -504 -356 -186 -205 -224 -238
-556 -474 l-250 -178 -65 72 c-85 96 -318 311 -398 368 -61 43 -65 44 -120 39
-31 -3 -79 -15 -107 -27 -65 -28 -172 -97 -179 -116 -7 -18 38 -98 65 -118 17
-12 31 -8 115 35 134 69 141 68 256 -35 107 -96 261 -253 303 -310 l29 -38
-22 -18 c-12 -10 -73 -46 -134 -81 -191 -106 -470 -275 -533 -321 -33 -25 -90
-72 -128 -106 -37 -34 -76 -62 -87 -62 -11 0 -40 18 -64 41 -56 51 -116 171
-153 304 -23 85 -27 120 -27 230 -1 116 3 142 31 245 71 253 136 420 255 653
99 194 154 247 276 263 63 8 106 34 128 75 25 49 44 267 45 517 1 159 5 222
13 222 6 0 43 -9 81 -20z m1859 -1452 c107 -41 214 -114 571 -383 362 -273
415 -310 625 -440 231 -142 359 -235 445 -320 217 -218 257 -430 128 -684 -78
-154 -171 -239 -303 -280 -169 -53 -520 -50 -888 5 l-103 15 -87 -45 c-268
-138 -564 -170 -840 -90 -99 29 -182 69 -278 136 l-70 49 -135 -35 c-505 -130
-880 -62 -1136 208 -206 216 -272 517 -152 692 57 83 175 153 540 319 275 126
485 235 590 306 72 49 195 149 361 295 231 203 330 255 518 274 92 9 150 3
214 -22z"/>
<path d="M4334 8052 c-141 -91 -351 -290 -419 -396 -37 -59 -99 -185 -93 -191
24 -23 124 -95 133 -95 6 0 38 56 70 125 32 68 73 142 92 164 18 22 112 106
208 186 96 81 175 151 175 157 0 13 -82 88 -96 88 -6 0 -37 -17 -70 -38z"/>
<path d="M6660 7911 c0 -70 5 -78 71 -111 66 -34 185 -80 204 -80 8 0 19 17
26 37 12 36 11 38 -27 71 -44 38 -226 132 -255 132 -16 0 -19 -7 -19 -49z"/>
<path d="M6660 7655 c0 -14 6 -41 14 -60 13 -30 31 -42 168 -108 275 -134 325
-156 337 -144 18 18 13 52 -12 75 -42 39 -460 262 -492 262 -9 0 -15 -9 -15
-25z"/>
<path d="M6664 7356 c-3 -13 -4 -38 -2 -56 3 -31 8 -35 103 -77 179 -79 398
-155 407 -141 12 20 9 64 -5 76 -40 33 -454 222 -486 222 -6 0 -13 -11 -17
-24z"/>
<path d="M6621 7096 c-7 -8 -14 -30 -18 -48 l-5 -35 114 -51 c158 -72 339
-135 351 -123 18 18 -13 80 -56 110 -65 44 -199 108 -283 136 -90 29 -88 29
-103 11z"/>
<path d="M6610 6824 c-14 -35 -12 -77 3 -97 20 -27 409 -193 427 -182 5 3 12
22 16 41 5 28 2 40 -12 54 -28 27 -193 112 -317 164 l-108 46 -9 -26z"/>
<path d="M6546 6562 c-3 -3 -6 -23 -6 -44 0 -38 2 -40 63 -68 34 -16 90 -36
125 -44 62 -14 63 -14 90 9 20 17 24 27 16 35 -15 15 -282 119 -288 112z"/>
<path d="M3839 5804 c-32 -71 -49 -204 -49 -370 0 -158 6 -196 37 -209 69 -30
564 -5 715 36 154 42 305 137 394 246 48 59 74 126 58 151 -37 58 -116 77
-424 102 -268 22 -421 41 -575 71 -136 26 -133 26 -156 -27z"/>
<path d="M6121 5750 c-24 -5 -55 -17 -68 -26 -21 -13 -24 -21 -19 -46 24 -119
223 -326 402 -416 113 -57 352 -92 511 -74 156 18 203 31 215 61 13 33 3 442
-11 469 -8 14 -25 21 -63 25 -96 11 -921 16 -967 7z"/>
<path d="M5348 5606 c-136 -49 -244 -114 -603 -366 -181 -127 -385 -238 -490
-265 -169 -45 -407 0 -543 102 -18 13 -40 23 -49 21 -16 -3 -63 -62 -63 -79 0
-38 170 -133 305 -170 109 -31 321 -33 410 -5 135 42 290 128 604 333 237 155
396 248 475 278 177 67 305 9 800 -358 271 -201 354 -255 431 -280 125 -40
264 -47 407 -21 117 21 124 27 112 95 l-9 54 -160 -3 c-149 -3 -166 -2 -249
23 -167 49 -378 172 -691 405 -296 220 -362 252 -515 257 -91 3 -114 0 -172
-21z"/>
<path d="M7266 4351 c-16 -18 -26 -66 -15 -75 48 -38 168 -121 213 -146 l59
-33 19 23 c37 46 35 70 -9 109 -47 42 -187 127 -223 136 -19 4 -31 1 -44 -14z"/>
<path d="M3410 4323 c-96 -55 -179 -116 -185 -135 -7 -19 17 -82 34 -92 21
-13 271 154 285 190 10 26 -16 69 -44 72 -14 1 -53 -14 -90 -35z"/>
<path d="M7157 4152 c-30 -33 -21 -59 41 -107 63 -51 200 -135 220 -135 14 0
52 58 52 81 0 30 -230 179 -277 179 -11 0 -27 -8 -36 -18z"/>
<path d="M3515 4129 c-61 -33 -180 -113 -190 -130 -8 -12 31 -99 45 -99 18 0
129 67 208 126 76 57 89 85 56 118 -23 23 -52 20 -119 -15z"/>
<path d="M5962 4148 c-11 -14 -15 -33 -13 -58 1 -19 113 -104 205 -155 l69
-38 24 27 c39 46 31 70 -43 124 -83 60 -180 112 -209 112 -13 0 -27 -6 -33
-12z"/>
<path d="M5856 3949 c-9 -13 -16 -31 -16 -40 0 -28 101 -107 232 -182 l47 -27
20 21 c10 11 22 33 26 47 6 23 1 32 -33 62 -51 45 -191 128 -230 136 -23 5
-33 1 -46 -17z"/>
<path d="M5324 3855 c-150 -33 -249 -114 -384 -316 -84 -125 -122 -159 -175
-159 -16 0 -73 16 -125 34 -337 122 -355 127 -435 133 -224 15 -445 -116 -548
-327 -27 -56 -32 -78 -35 -159 -3 -55 1 -112 9 -140 59 -220 250 -353 529
-368 131 -7 272 14 460 68 74 21 145 39 157 39 13 0 51 -23 85 -51 80 -64 240
-143 343 -169 117 -30 319 -45 412 -31 148 22 281 79 390 168 38 31 62 43 85
43 18 0 141 -18 273 -40 361 -60 527 -55 677 21 72 36 149 112 183 179 66 129
45 304 -54 458 -103 158 -270 199 -625 152 -103 -13 -204 -20 -257 -18 l-87 3
-148 152 c-201 204 -337 291 -513 329 -80 17 -137 17 -217 -1z m256 -158 c82
-34 160 -96 305 -243 178 -181 190 -188 329 -193 61 -2 206 2 321 8 243 14
358 5 434 -34 131 -66 183 -208 137 -367 -43 -148 -174 -228 -371 -228 -108 0
-221 21 -411 76 -210 61 -233 66 -270 59 -18 -3 -86 -43 -151 -90 -209 -147
-305 -183 -463 -172 -170 13 -332 71 -451 165 -100 78 -175 122 -208 122 -16
0 -92 -20 -168 -44 -189 -59 -256 -70 -404 -63 -141 6 -210 25 -297 83 -188
124 -177 425 22 575 112 85 194 80 472 -25 292 -110 387 -127 458 -81 15 10
78 82 140 159 201 251 292 315 451 315 50 0 86 -6 125 -22z"/>
<path d="M5332 3462 c-15 -10 -32 -111 -32 -198 0 -92 -19 -99 -132 -50 l-36
16 -6 -38 c-12 -70 -26 -227 -26 -284 l0 -57 38 -11 c20 -6 57 -14 82 -18 l45
-7 3 -72 3 -71 37 -6 c48 -8 226 -8 275 0 l37 7 0 94 c0 91 1 94 26 103 14 6
57 10 95 10 l69 0 2 68 c4 148 -3 237 -20 250 -10 7 -47 12 -98 12 l-82 0 -3
119 c-2 66 -8 123 -12 128 -12 11 -249 16 -265 5z"/>
<path d="M4134 3236 c-45 -20 -112 -83 -135 -127 -54 -107 13 -244 144 -294
93 -35 202 5 254 93 99 168 -90 403 -263 328z"/>
<path d="M6662 3174 c-80 -40 -141 -127 -142 -203 0 -73 76 -174 156 -207 78
-33 183 -7 241 59 78 89 66 223 -29 314 -69 66 -143 79 -226 37z"/>
<path d="M4413 3828 c-37 -47 -36 -53 31 -135 35 -43 75 -89 89 -102 26 -23
26 -23 58 -5 18 11 34 24 36 31 7 19 -174 223 -198 223 -4 0 -11 -6 -16 -12z"/>
<path d="M6321 3713 c-26 -27 -56 -62 -69 -80 l-23 -32 30 -33 30 -33 36 20
c40 21 135 119 135 138 -1 26 -50 67 -81 67 -7 0 -33 -21 -58 -47z"/>
</g>
</svg>
