<?xml version="1.0" standalone="no"?>
<!DOCTYPE svg PUBLIC "-//W3C//DTD SVG 20010904//EN"
 "http://www.w3.org/TR/2001/REC-SVG-20010904/DTD/svg10.dtd">
<svg version="1.0" xmlns="http://www.w3.org/2000/svg"
 width="1080.000000pt" height="1080.000000pt" viewBox="0 0 1080.000000 1080.000000"
 preserveAspectRatio="xMidYMid meet">
<metadata>
Created by potrace 1.11, written by Peter Selinger 2001-2013
</metadata>
<g transform="translate(0.000000,1080.000000) scale(0.100000,-0.100000)"
fill="#000000" stroke="none">
<path d="M4955 8555 c-970 -115 -1591 -576 -1779 -1320 -45 -181 -58 -294 -63
-577 l-5 -267 -37 -25 c-39 -27 -97 -99 -125 -153 -9 -18 -25 -70 -36 -115
-23 -97 -26 -302 -10 -677 l10 -224 -108 -111 c-290 -301 -420 -630 -354 -894
37 -144 73 -203 238 -389 223 -250 333 -434 388 -644 69 -268 183 -476 352
-645 172 -172 379 -273 627 -304 118 -15 366 -12 479 5 185 28 291 80 428 210
67 63 84 74 126 82 79 13 582 9 629 -5 26 -8 73 -43 134 -98 151 -137 284
-187 542 -204 427 -28 739 72 979 312 174 176 290 396 360 685 45 189 167 380
418 653 87 95 122 142 153 204 97 198 89 396 -25 633 -74 153 -151 258 -300
410 l-90 92 0 438 c-1 426 -2 440 -23 504 -32 92 -91 180 -156 228 l-55 42 -5
277 c-5 299 -15 382 -67 580 -51 191 -115 334 -219 488 -288 428 -766 690
-1451 796 -178 27 -765 35 -955 13z m900 -189 c503 -71 884 -233 1153 -490
287 -275 424 -603 457 -1094 l6 -92 -2087 2 -2087 3 2 85 c8 342 110 664 289
913 77 107 238 260 359 340 280 187 650 304 1093 346 144 14 684 5 815 -13z
m1710 -2136 c67 -33 108 -96 131 -197 15 -70 16 -121 10 -498 l-7 -420 133
-135 c359 -363 446 -688 250 -929 -20 -25 -68 -80 -107 -121 -150 -159 -265
-318 -338 -467 -59 -118 -63 -130 -96 -265 -91 -368 -301 -635 -592 -750 -125
-50 -214 -63 -434 -62 -308 1 -406 31 -556 169 -143 132 -202 148 -559 148
-261 0 -378 -12 -442 -44 -24 -12 -80 -57 -124 -100 -136 -132 -233 -166 -504
-175 -343 -12 -567 59 -758 240 -158 150 -251 319 -322 586 -52 197 -172 411
-342 612 -40 47 -109 128 -152 180 -44 51 -90 116 -103 144 -110 240 6 544
332 869 l111 110 -7 135 c-17 333 -21 676 -10 749 21 131 82 222 164 241 17 5
986 7 2152 7 l2120 -2 50 -25z"/>
<path d="M5867 6088 c-28 -10 -43 -43 -33 -75 7 -20 127 -86 701 -384 204
-106 386 -194 406 -196 113 -16 201 89 278 329 41 130 48 193 24 238 -10 19
-29 40 -43 46 -15 7 -155 16 -340 23 -173 7 -427 16 -565 21 -306 12 -392 11
-428 -2z"/>
<path d="M4355 6083 c-49 -2 -240 -10 -424 -17 l-334 -14 -26 -26 c-24 -24
-26 -33 -25 -104 3 -170 124 -425 227 -479 63 -32 95 -20 532 207 481 249 647
339 657 354 13 20 8 53 -10 69 -16 15 -48 17 -263 15 -134 -1 -284 -3 -334 -5z"/>
<path d="M5280 4896 c-193 -70 -411 -194 -778 -442 -267 -181 -292 -200 -292
-229 0 -44 36 -41 155 15 173 81 378 164 525 213 404 135 606 135 1010 0 157
-52 346 -128 513 -207 65 -31 127 -56 137 -56 24 0 43 25 36 47 -10 31 -483
352 -711 483 -136 79 -312 163 -384 184 -75 22 -134 20 -211 -8z"/>
<path d="M3050 4604 c-96 -58 -181 -112 -187 -121 -33 -43 1 -113 54 -113 33
0 356 192 385 229 33 43 -2 111 -56 111 -12 0 -100 -47 -196 -106z"/>
<path d="M7501 4684 c-25 -32 -26 -52 -6 -81 22 -31 357 -233 387 -233 58 0
94 72 58 115 -7 8 -91 63 -187 120 -190 114 -217 123 -252 79z"/>
<path d="M3160 4415 c-95 -57 -180 -110 -187 -118 -8 -8 -15 -29 -15 -47 -1
-39 30 -70 69 -70 24 0 321 172 371 215 48 42 20 125 -43 125 -12 0 -100 -47
-195 -105z"/>
<path d="M7395 4500 c-21 -24 -24 -72 -5 -95 24 -28 361 -225 386 -225 29 0
74 41 74 67 0 36 -33 63 -204 167 -183 112 -217 124 -251 86z"/>
<path d="M3268 4226 c-214 -128 -234 -150 -187 -210 35 -44 65 -36 233 66 208
126 216 132 216 172 0 41 -17 64 -55 72 -25 4 -57 -11 -207 -100z"/>
<path d="M7292 4314 c-27 -19 -30 -73 -4 -102 28 -32 352 -222 379 -222 29 0
73 41 73 68 0 11 -9 30 -19 44 -27 33 -352 228 -382 228 -14 0 -35 -7 -47 -16z"/>
<path d="M3382 4041 c-180 -109 -212 -134 -212 -166 0 -35 37 -75 70 -75 30 0
351 186 383 222 38 44 2 119 -57 118 -11 -1 -94 -45 -184 -99z"/>
<path d="M7180 4120 c-23 -23 -26 -68 -7 -93 20 -27 359 -227 385 -227 51 0
90 73 60 113 -7 9 -92 63 -188 121 -183 111 -214 122 -250 86z"/>
<path d="M5364 3826 c-17 -8 -34 -21 -38 -31 -3 -9 -6 -217 -6 -461 l0 -445
25 -24 c32 -33 78 -33 110 0 l25 24 0 449 0 449 -22 20 c-32 29 -58 34 -94 19z"/>
<path d="M5070 3630 c-19 -19 -20 -33 -20 -365 0 -341 0 -344 22 -365 33 -30
91 -27 117 6 20 26 21 38 21 359 0 321 -1 333 -21 359 -26 33 -88 37 -119 6z"/>
<path d="M5612 3627 c-22 -23 -22 -28 -22 -363 l0 -341 23 -21 c32 -30 87 -29
115 1 22 23 22 28 22 363 l0 341 -23 21 c-32 30 -87 29 -115 -1z"/>
<path d="M4003 3226 c-149 -49 -226 -159 -208 -298 27 -213 134 -339 309 -368
207 -33 588 135 665 293 52 108 18 151 -143 182 -85 16 -104 24 -222 101 -47
31 -111 65 -142 76 -73 26 -202 33 -259 14z m389 -216 c48 -14 95 -61 108
-111 31 -115 -78 -224 -192 -190 -145 44 -155 246 -13 296 49 17 51 17 97 5z"/>
<path d="M6564 3222 c-64 -19 -127 -52 -205 -108 -71 -49 -97 -60 -189 -79
-99 -20 -133 -36 -156 -71 -35 -53 26 -164 130 -239 160 -114 404 -187 548
-164 152 25 264 140 299 309 14 68 7 175 -14 216 -64 123 -249 184 -413 136z
m-34 -231 c115 -83 79 -263 -58 -286 -107 -18 -198 80 -178 190 19 99 155 154
236 96z"/>
</g>
</svg>
